<svg width="72" height="72" viewBox="0 0 72 72" fill="none" xmlns="http://www.w3.org/2000/svg">
<g clip-path="url(#clip0_53_37)">
<path d="M22.2188 54.9844V35.0156L10.6875 26.1562V50.7656C10.6875 53.5781 12.0938 54.9844 14.9062 54.9844" fill="#4285F4"/>
<path d="M21.6562 34.875L36 45.7031L50.3438 34.875V21.0938L36 31.9219L21.6562 21.0938" fill="#EA4335"/>
<path d="M49.7812 54.9844V35.0156L61.3125 26.1562V50.7656C61.3125 53.5781 59.9062 54.9844 57.0938 54.9844" fill="#34A853"/>
<path d="M10.6875 26.4375L22.2188 35.2969V21.5156L18 18.2813C14.2031 15.3281 10.6875 18.2813 10.6875 21.9375" fill="#C5221F"/>
<path d="M61.3125 26.4375L49.7812 35.2969V21.5156L54 18.2813C57.7969 15.3281 61.3125 18.2813 61.3125 21.9375" fill="#FBBC04"/>
</g>
<defs>
<clipPath id="clip0_53_37">
<rect width="72" height="72" fill="white"/>
</clipPath>
</defs>
</svg>
