<svg width="48" height="48" viewBox="0 0 48 48" fill="none" xmlns="http://www.w3.org/2000/svg">
<g clip-path="url(#clip0_3_28)">
<path d="M47.4279 24.449C47.4279 22.4825 47.2683 21.0474 46.923 19.5593H24.467V28.4352H37.6482C37.3825 30.641 35.9475 33.9629 32.7584 36.1951L32.7137 36.4923L39.8138 41.9927L40.3058 42.0418C44.8234 37.8694 47.4279 31.7306 47.4279 24.449Z" fill="#4285F4"/>
<path d="M24.467 47.8351C30.9246 47.8351 36.3459 45.709 40.3057 42.0418L32.7584 36.1951C30.7387 37.6036 28.028 38.5869 24.467 38.5869C18.1422 38.5869 12.7741 34.4147 10.8605 28.6479L10.58 28.6718L3.19714 34.3854L3.10059 34.6538C7.03365 42.4668 15.1125 47.8351 24.467 47.8351Z" fill="#34A853"/>
<path d="M10.8606 28.648C10.3557 27.1598 10.0635 25.5652 10.0635 23.9176C10.0635 22.2698 10.3557 20.6754 10.834 19.1872L10.8206 18.8703L3.34529 13.0648L3.10071 13.1812C1.4797 16.4234 0.549561 20.0642 0.549561 23.9176C0.549561 27.771 1.4797 31.4116 3.10071 34.6538L10.8606 28.648Z" fill="#FBBC05"/>
<path d="M24.467 9.24806C28.9581 9.24806 31.9876 11.188 33.7151 12.8092L40.4651 6.21856C36.3195 2.36519 30.9246 0 24.467 0C15.1125 0 7.03365 5.36812 3.10059 13.1811L10.8339 19.1872C12.7741 13.4204 18.1422 9.24806 24.467 9.24806Z" fill="#EB4335"/>
</g>
<defs>
<clipPath id="clip0_3_28">
<rect width="48" height="48" fill="white"/>
</clipPath>
</defs>
</svg>
