<svg width="638" height="154" viewBox="0 0 638 154" fill="none" xmlns="http://www.w3.org/2000/svg">
<path d="M19.568 30.228C19.568 34.3827 20.6613 37.8813 22.848 40.724C25.0347 43.4573 27.9867 45.9173 31.704 48.104C35.5307 50.2907 39.7947 52.5867 44.496 54.992C48.3227 56.8507 52.0947 58.764 55.812 60.732C59.5293 62.7 62.9187 64.9413 65.98 67.456C69.1507 69.8613 71.6653 72.7587 73.524 76.148C75.3827 79.5373 76.312 83.6373 76.312 88.448C76.312 93.696 74.7813 98.616 71.72 103.208C68.6587 107.8 64.34 111.572 58.764 114.524C53.188 117.367 46.5733 118.788 38.92 118.788C30.72 118.788 23.7227 117.312 17.928 114.36C12.1333 111.299 7.70533 107.527 4.644 103.044C1.58267 98.5613 0.0520002 94.024 0.0520002 89.432C0.0520002 86.808 0.981334 84.7853 2.84 83.364C4.69867 81.8333 7.15867 81.0133 10.22 80.904C13.7187 80.6853 15.5773 81.6693 15.796 83.856C16.0147 84.9493 15.7413 85.7693 14.976 86.316C14.32 86.8627 13.8827 87.8467 13.664 89.268C13.4453 92.1107 14.2107 95.336 15.96 98.944C17.8187 102.552 20.6613 105.668 24.488 108.292C28.424 110.916 33.2893 112.228 39.084 112.228C44.7693 112.228 49.416 111.135 53.024 108.948C56.7413 106.652 59.5293 103.755 61.388 100.256C63.2467 96.648 64.2307 92.9307 64.34 89.104C64.4493 84.9493 63.0827 81.4507 60.24 78.608C57.3973 75.7653 53.7893 73.2507 49.416 71.064C45.152 68.768 40.724 66.5267 36.132 64.34C31.868 62.1533 27.5493 59.748 23.176 57.124C18.912 54.3907 15.304 51.0013 12.352 46.956C9.50933 42.9107 8.088 37.8813 8.088 31.868C8.088 27.0573 9.564 22.5747 12.516 18.42C15.5773 14.156 19.7867 10.712 25.144 8.08799C30.6107 5.35466 36.952 3.988 44.168 3.988C51.056 3.988 56.8507 5.29999 61.552 7.92399C66.2533 10.4387 69.8067 13.5547 72.212 17.272C74.6173 20.88 75.82 24.324 75.82 27.604C75.82 31.9773 73.032 34.4373 67.456 34.984C65.3787 35.0933 63.848 34.82 62.864 34.164C61.88 33.3987 61.388 32.5787 61.388 31.704C61.388 30.392 61.716 29.3533 62.372 28.588C63.1373 27.8227 63.4653 26.948 63.356 25.964C63.4653 24.4333 62.864 22.4653 61.552 20.06C60.24 17.5453 58.0533 15.304 54.992 13.336C52.04 11.368 48.1587 10.384 43.348 10.384C37.6627 10.384 33.0707 11.4773 29.572 13.664C26.0733 15.7413 23.504 18.3107 21.864 21.372C20.3333 24.4333 19.568 27.3853 19.568 30.228ZM154.105 55.6875H82.418V48.1875H154.105V55.6875ZM149.105 90.25C149.105 94.8333 147.73 99.1667 144.98 103.25C142.439 107.042 139.085 110.146 134.918 112.562C130.751 114.938 126.897 116.125 123.355 116.125C119.897 116.125 115.585 114.188 110.418 110.312C107.918 108.438 104.251 105.208 99.418 100.625V153.625L89.418 148.375V65.6875H99.168V80.9375L102.98 76.9375C111.772 67.7292 118.897 63.125 124.355 63.125C130.272 63.125 135.918 66.1875 141.293 72.3125C146.501 78.2708 149.105 84.25 149.105 90.25ZM142.918 83C142.918 79.8333 141.272 76.7917 137.98 73.875C136.355 72.4167 134.293 71.6875 131.793 71.6875C126.876 71.6875 120.772 74.6667 113.48 80.625C105.98 86.75 102.23 92.1875 102.23 96.9375C102.23 99.7292 104.835 102.188 110.043 104.312C112.376 105.271 114.647 105.75 116.855 105.75C124.105 105.75 130.397 102.958 135.73 97.375C140.522 92.375 142.918 87.5833 142.918 83ZM213.98 55.6875H172.355V65.6875C172.522 65.6875 172.689 65.7708 172.855 65.9375C173.022 66.1042 173.168 66.1875 173.293 66.1875C172.96 66.1875 172.772 66.1667 172.73 66.125C172.73 65.9167 175.835 65.25 182.043 64.125C184.335 63.7083 186.605 63.5 188.855 63.5C198.23 63.5 204.251 66.125 206.918 71.375C208.71 74.875 209.605 81.9375 209.605 92.5625V116.625C208.73 116.292 205.418 114.938 199.668 112.562C199.668 111.229 199.397 110.375 198.855 110C196.647 111.292 194.835 112.271 193.418 112.938C188.918 115.062 183.689 116.125 177.73 116.125C169.522 116.125 163.189 113.542 158.73 108.375C156.564 105.875 155.48 103.083 155.48 100C155.48 96.5417 157.189 93.1042 160.605 89.6875C167.23 83.0625 175.46 79.75 185.293 79.75C191.251 79.75 196.043 81.125 199.668 83.875V78.125C197.835 75.7917 196.043 74.2292 194.293 73.4375C192.585 72.6458 190.23 72.2917 187.23 72.375C180.522 72.5 174.376 73.7292 168.793 76.0625C166.293 77.1042 163.855 78.0417 161.48 78.875V74.25C162.022 73.7917 162.814 73.1042 163.855 72.1875C164.022 71.9792 164.126 71.8542 164.168 71.8125V55.6875H151.355V48.1875H213.98V55.6875ZM199.668 95.25C199.668 93.4167 197.48 91.7708 193.105 90.3125C189.48 89.1042 186.46 88.5 184.043 88.5C175.251 88.5 168.21 91.6667 162.918 98C160.793 100.542 159.73 102.625 159.73 104.25C160.605 107.292 164.043 108.812 170.043 108.812C177.793 108.812 184.876 106.875 191.293 103C196.876 99.625 199.668 97.0417 199.668 95.25ZM280.355 55.6875H213.168V48.1875H280.355V55.6875ZM266.918 83.125C266.918 73.125 262.189 68.125 252.73 68.125C245.73 68.125 239.876 71.7917 235.168 79.125C231.001 85.625 228.918 92.5417 228.918 99.875V118.062L218.668 112.688V65.6875H229.418V73.125L234.98 68.9375C239.897 65.2292 245.085 63.375 250.543 63.375C257.96 63.375 264.105 66.25 268.98 72C273.564 77.4167 275.855 83.8958 275.855 91.4375C275.855 100.896 271.855 109.979 263.855 118.688L251.793 111.125C255.543 107.417 258.73 104 261.355 100.875C265.064 96.4583 266.918 90.5417 266.918 83.125ZM351.355 55.6875H343.168L343.043 116.75L331.668 111.875V102.938C324.918 111.646 318.293 116 311.793 116C307.668 116 303.168 114.271 298.293 110.812C294.126 107.854 290.668 104.396 287.918 100.438C284.668 95.7708 283.064 91.2292 283.105 86.8125C283.147 82.7708 285.376 78.0833 289.793 72.75C294.751 66.75 300.73 63.75 307.73 63.75C312.189 63.75 316.668 65.6458 321.168 69.4375C322.543 70.5625 326.043 74.1875 331.668 80.3125V55.6875H278.168V48.1875H331.668C331.668 39.5625 330.939 32.8125 329.48 27.9375C327.314 20.6875 322.48 12.0625 314.98 2.0625C314.814 1.97917 314.73 1.64583 314.73 1.0625C314.73 0.5625 314.855 0.229167 315.105 0.0625H327.043C337.793 11.9375 343.168 27.9792 343.168 48.1875H351.355V55.6875ZM328.668 84.125C328.668 80.875 326.897 78.0833 323.355 75.75C320.189 73.6667 316.897 72.625 313.48 72.625C310.98 72.625 307.855 73.7917 304.105 76.125C295.939 81.2083 291.855 87.2083 291.855 94.125C291.855 97.9167 292.876 101.208 294.918 104C297.168 107.125 300.105 108.688 303.73 108.688C307.48 108.688 311.48 106.979 315.73 103.562C318.689 101.188 321.439 98.2708 323.98 94.8125C327.105 90.5625 328.668 87 328.668 84.125ZM411.48 55.6875H369.855V65.6875C370.022 65.6875 370.189 65.7708 370.355 65.9375C370.522 66.1042 370.668 66.1875 370.793 66.1875C370.46 66.1875 370.272 66.1667 370.23 66.125C370.23 65.9167 373.335 65.25 379.543 64.125C381.835 63.7083 384.105 63.5 386.355 63.5C395.73 63.5 401.751 66.125 404.418 71.375C406.21 74.875 407.105 81.9375 407.105 92.5625V116.625C406.23 116.292 402.918 114.938 397.168 112.562C397.168 111.229 396.897 110.375 396.355 110C394.147 111.292 392.335 112.271 390.918 112.938C386.418 115.062 381.189 116.125 375.23 116.125C367.022 116.125 360.689 113.542 356.23 108.375C354.064 105.875 352.98 103.083 352.98 100C352.98 96.5417 354.689 93.1042 358.105 89.6875C364.73 83.0625 372.96 79.75 382.793 79.75C388.751 79.75 393.543 81.125 397.168 83.875V78.125C395.335 75.7917 393.543 74.2292 391.793 73.4375C390.085 72.6458 387.73 72.2917 384.73 72.375C378.022 72.5 371.876 73.7292 366.293 76.0625C363.793 77.1042 361.355 78.0417 358.98 78.875V74.25C359.522 73.7917 360.314 73.1042 361.355 72.1875C361.522 71.9792 361.626 71.8542 361.668 71.8125V55.6875H348.855V48.1875H411.48V55.6875ZM397.168 95.25C397.168 93.4167 394.98 91.7708 390.605 90.3125C386.98 89.1042 383.96 88.5 381.543 88.5C372.751 88.5 365.71 91.6667 360.418 98C358.293 100.542 357.23 102.625 357.23 104.25C358.105 107.292 361.543 108.812 367.543 108.812C375.293 108.812 382.376 106.875 388.793 103C394.376 99.625 397.168 97.0417 397.168 95.25ZM477.855 55.6875H410.668V48.1875H477.855V55.6875ZM464.418 83.125C464.418 73.125 459.689 68.125 450.23 68.125C443.23 68.125 437.376 71.7917 432.668 79.125C428.501 85.625 426.418 92.5417 426.418 99.875V118.062L416.168 112.688V65.6875H426.918V73.125L432.48 68.9375C437.397 65.2292 442.585 63.375 448.043 63.375C455.46 63.375 461.605 66.25 466.48 72C471.064 77.4167 473.355 83.8958 473.355 91.4375C473.355 100.896 469.355 109.979 461.355 118.688L449.293 111.125C453.043 107.417 456.23 104 458.855 100.875C462.564 96.4583 464.418 90.5417 464.418 83.125ZM496.191 22.9091V31.0909C496.191 33.5758 495.736 36.2273 494.827 39.0455C493.948 41.8333 492.645 44.5455 490.918 47.1818C489.221 49.7879 487.16 52.0606 484.736 54L478.918 49.2727C480.827 46.5455 482.479 43.7121 483.873 40.7727C485.297 37.803 486.009 34.6364 486.009 31.2727V22.9091H496.191ZM561.087 116L506.175 115.744C505.492 114.805 505.236 113.739 505.407 112.544C505.663 111.264 506.218 110.368 507.071 109.856C510.058 107.979 513.514 105.419 517.439 102.176C521.45 98.9333 525.503 95.3067 529.599 91.296C533.78 87.2 537.62 82.8907 541.119 78.368C544.618 73.76 547.476 69.152 549.695 64.544C551.999 59.8507 553.194 55.3707 553.279 51.104C553.45 47.008 552.596 43.68 550.719 41.12C548.927 38.4747 546.623 36.512 543.807 35.232C540.991 33.952 538.175 33.312 535.359 33.312C532.202 33.312 529.215 33.9947 526.399 35.36C523.668 36.64 521.322 38.4747 519.359 40.864C517.482 43.2533 516.287 46.0693 515.775 49.312C514.58 49.4827 513.343 48.9707 512.063 47.776C510.868 46.5813 510.57 45.216 511.167 43.68C512.106 41.376 513.684 38.944 515.903 36.384C518.207 33.7387 521.151 31.52 524.735 29.728C528.319 27.936 532.458 27.04 537.151 27.04C541.503 27.04 545.599 27.936 549.439 29.728C553.279 31.4347 556.436 33.9947 558.911 37.408C561.471 40.8213 562.794 45.0453 562.879 50.08C563.05 54.2613 562.026 58.6987 559.807 63.392C557.588 68 554.687 72.6507 551.103 77.344C547.519 81.952 543.594 86.3467 539.327 90.528C535.146 94.624 531.05 98.2933 527.039 101.536C523.028 104.693 519.572 107.168 516.671 108.96L545.855 108.832C548.756 108.832 551.146 108.704 553.023 108.448C554.9 108.192 556.436 107.637 557.631 106.784C558.911 105.845 560.02 104.437 560.959 102.56C561.983 100.597 563.05 97.952 564.159 94.624C564.244 94.368 564.671 94.368 565.439 94.624C566.292 94.7947 566.676 95.3493 566.591 96.288C566.506 99.2747 566.164 102.219 565.567 105.12C565.055 108.021 564.458 110.709 563.775 113.184C563.263 115.061 562.367 116 561.087 116ZM578.023 103.328C577.767 102.901 577.639 102.475 577.639 102.048C577.639 100.939 578.322 100.043 579.687 99.36C581.138 98.592 582.759 98.208 584.551 98.208C585.916 98.208 586.94 98.464 587.623 98.976C588.391 99.4027 588.775 99.9147 588.775 100.512C588.775 101.024 588.732 101.451 588.647 101.792C588.647 102.133 588.647 102.475 588.647 102.816C588.647 103.413 588.86 104.139 589.287 104.992C590.823 107.637 593.127 109.557 596.199 110.752C599.271 111.861 602.215 112.416 605.031 112.416C608.956 112.416 612.54 111.349 615.783 109.216C619.111 106.997 621.799 103.968 623.847 100.128C625.895 96.2027 626.919 91.68 626.919 86.56C626.919 81.952 625.895 77.984 623.847 74.656C621.799 71.328 619.068 68.8107 615.655 67.104C612.242 65.312 608.53 64.416 604.519 64.416C601.191 64.416 597.778 65.0987 594.279 66.464C590.866 67.744 587.58 69.792 584.423 72.608C582.887 72.608 582.119 71.968 582.119 70.688C582.119 70.3467 582.162 70.0907 582.247 69.92L594.919 31.52C595.26 30.5813 595.644 29.8987 596.071 29.472C596.498 28.96 597.138 28.704 597.991 28.704L625.767 28.448C627.559 28.448 629.052 28.32 630.247 28.064C631.442 27.808 632.38 27.04 633.063 25.76C633.404 25.1627 633.916 24.864 634.599 24.864C635.623 24.864 636.135 25.376 636.135 26.4V26.656L634.983 33.568C634.727 34.9333 634.044 35.616 632.935 35.616L600.167 35.872L591.591 62.88C593.895 61.4293 596.37 60.3627 599.015 59.68C601.66 58.9973 604.306 58.656 606.951 58.656C611.986 58.656 616.807 59.808 621.415 62.112C626.108 64.3307 629.948 67.488 632.935 71.584C635.922 75.68 637.415 80.544 637.415 86.176C637.415 90.1013 636.604 93.9413 634.983 97.696C633.362 101.451 631.1 104.864 628.199 107.936C625.383 110.923 622.055 113.312 618.215 115.104C614.375 116.811 610.194 117.664 605.671 117.664C599.356 117.664 593.767 116.384 588.903 113.824C584.124 111.264 580.498 107.765 578.023 103.328Z" fill="white"/>
</svg>
